<?xml version="1.0" standalone="no"?>
<!DOCTYPE svg PUBLIC "-//W3C//DTD SVG 20010904//EN"
 "http://www.w3.org/TR/2001/REC-SVG-20010904/DTD/svg10.dtd">
<svg version="1.0" xmlns="http://www.w3.org/2000/svg"
 width="550.000000pt" height="550.000000pt" viewBox="0 0 550.000000 550.000000"
 preserveAspectRatio="xMidYMid meet">

<g transform="translate(0.000000,550.000000) scale(0.100000,-0.100000)"
fill="#000000" stroke="none">
<path d="M2510 5289 c-467 -43 -917 -218 -1305 -508 -129 -96 -390 -357 -486
-486 -295 -396 -465 -839 -509 -1325 -55 -619 125 -1241 509 -1755 96 -129
357 -390 486 -486 514 -384 1136 -564 1755 -509 486 44 929 214 1325 509 129
96 390 357 486 486 295 396 465 839 509 1325 55 619 -125 1241 -509 1755 -96
129 -357 390 -486 486 -519 387 -1143 565 -1775 508z m476 -50 c893 -86 1676
-653 2042 -1480 314 -707 276 -1535 -101 -2214 -221 -399 -573 -751 -972 -972
-815 -453 -1826 -410 -2597 108 -198 133 -425 343 -568 524 -720 914 -720
2186 0 3100 143 181 370 391 568 524 327 219 743 371 1127 409 129 13 373 14
501 1z"/>
<path d="M2195 4533 c-34 -8 -81 -50 -99 -87 -15 -32 -16 -79 -14 -450 3 -401
4 -415 24 -442 51 -69 50 -69 325 -72 l249 -3 0 -89 0 -90 -116 0 c-133 0
-171 -12 -205 -66 -17 -28 -27 -34 -55 -34 -53 0 -100 -24 -121 -62 -16 -29
-18 -55 -15 -225 3 -184 2 -192 -17 -198 -40 -12 -71 -63 -71 -115 0 -40 5
-53 29 -78 31 -30 77 -46 108 -36 67 22 93 56 93 125 0 33 -6 47 -32 73 -18
18 -38 35 -45 37 -8 3 -14 57 -19 170 -9 224 3 259 90 259 30 0 36 -4 36 -21
0 -34 37 -85 74 -103 19 -9 57 -16 85 -16 l51 0 0 -195 c0 -129 4 -201 11
-213 9 -15 4 -41 -25 -130 l-38 -112 -91 0 c-73 0 -99 -4 -123 -19 -39 -24
-58 -76 -52 -142 8 -77 12 -79 157 -79 85 0 131 4 139 12 8 8 12 48 12 112 1
93 4 110 43 216 l42 115 166 3 c126 2 169 -1 176 -10 5 -7 27 -60 48 -118 36
-96 39 -113 36 -190 -1 -47 2 -97 8 -113 l11 -27 134 0 c158 0 156 -1 156 104
0 58 -3 69 -29 98 -29 32 -31 33 -131 38 l-102 5 -44 119 -44 120 0 203 0 203
63 0 c44 0 71 6 95 20 35 21 72 74 72 103 0 24 60 23 91 -2 24 -19 24 -21 24
-229 0 -246 0 -247 80 -239 27 2 58 8 68 12 12 5 17 2 17 -10 0 -9 15 -32 34
-51 28 -28 41 -34 78 -34 l43 0 -3 49 -4 50 58 3 c79 4 84 26 7 30 l-58 3 0
35 0 35 58 3 c78 4 72 26 -8 30 l-58 3 6 55 6 54 -30 0 c-47 0 -96 -26 -113
-59 -9 -16 -16 -55 -16 -85 l0 -55 -47 -14 c-27 -8 -54 -12 -61 -9 -11 4 -12
41 -8 191 7 205 1 239 -46 274 -14 11 -48 22 -75 24 -41 4 -52 10 -65 34 -33
56 -70 69 -200 69 l-118 0 0 90 0 89 248 3 249 3 35 27 c68 52 69 63 66 513
l-3 400 -24 39 c-15 24 -40 45 -65 57 -39 17 -76 19 -616 18 -316 -1 -584 -4
-595 -6z m1202 -53 c63 -38 63 -38 63 -470 0 -424 0 -425 -56 -469 -26 -21
-34 -21 -617 -21 l-589 0 -39 39 -40 39 3 415 3 415 25 27 c14 15 34 31 45 35
11 5 279 9 595 9 553 1 576 0 607 -19z m-527 -1080 l0 -80 -80 0 -80 0 0 80 0
80 80 0 80 0 0 -80z m306 -164 c29 -29 34 -41 34 -81 0 -40 -5 -52 -34 -81
l-34 -34 -350 0 -350 0 -31 25 c-61 52 -60 133 4 183 27 22 34 22 377 22 l350
0 34 -34z m-198 -238 c8 -8 12 -65 12 -189 0 -148 -3 -180 -16 -193 -13 -13
-45 -16 -193 -16 -124 0 -181 4 -189 12 -13 13 -18 379 -5 391 12 13 378 8
391 -5z m670 -245 l-3 -148 -25 3 c-14 1 -35 14 -47 28 -20 22 -23 36 -23 119
0 92 0 94 31 119 17 14 39 26 50 26 19 0 19 -7 17 -147z m-1406 -100 c35 -42
30 -78 -16 -108 -32 -21 -73 -10 -91 26 -19 36 -19 41 6 73 25 31 77 36 101 9z
m263 -418 l0 -90 -96 -3 c-53 -1 -108 2 -122 7 -25 10 -27 15 -27 67 0 48 4
59 30 85 29 29 31 30 122 27 l93 -3 0 -90z m800 70 c21 -21 25 -33 25 -88 0
-59 -2 -65 -22 -71 -42 -11 -203 -7 -216 6 -16 16 -16 150 0 166 8 8 45 12
100 12 81 0 91 -2 113 -25z"/>
<path d="M2419 4317 c-61 -41 -69 -70 -69 -265 0 -140 3 -181 16 -208 48 -101
188 -110 251 -15 22 32 23 43 23 225 0 170 -2 194 -19 220 -45 68 -136 87
-202 43z m150 -33 c42 -35 51 -77 50 -239 0 -161 -10 -200 -58 -232 -58 -39
-135 -22 -166 37 -22 42 -22 358 0 400 34 65 118 82 174 34z"/>
<path d="M3025 4325 c-65 -34 -70 -50 -73 -265 -3 -190 -3 -196 20 -230 64
-95 199 -89 250 11 15 29 18 62 18 212 0 191 -4 209 -54 256 -33 31 -116 39
-161 16z m151 -49 l34 -34 0 -181 c0 -201 -6 -228 -60 -256 -37 -19 -73 -19
-110 0 -54 28 -60 55 -60 256 l0 181 34 34 c29 29 41 34 81 34 40 0 52 -5 81
-34z"/>
<path d="M1693 1823 c615 -2 1619 -2 2230 0 612 1 109 2 -1118 2 -1227 0
-1727 -1 -1112 -2z"/>
<path d="M1590 1495 c0 -14 5 -25 10 -25 6 0 10 11 10 25 0 14 -4 25 -10 25
-5 0 -10 -11 -10 -25z"/>
<path d="M2376 1513 c-3 -3 -6 -82 -6 -175 0 -143 2 -168 15 -168 13 0 15 25
15 169 0 154 -5 192 -24 174z"/>
<path d="M1326 1479 c-19 -15 -26 -30 -26 -55 0 -45 26 -69 94 -89 55 -16 96
-51 96 -82 0 -30 -47 -63 -90 -63 -30 0 -47 6 -65 25 -14 13 -25 29 -25 35 0
5 -4 10 -10 10 -14 0 -12 -32 3 -51 20 -26 53 -39 97 -39 72 0 109 31 110 92
0 45 -30 72 -106 94 -77 22 -103 65 -64 104 32 32 92 27 123 -10 14 -16 28
-30 31 -30 15 0 3 33 -19 55 -32 33 -110 35 -149 4z"/>
<path d="M4000 1435 c0 -62 -1 -65 -19 -55 -25 13 -77 13 -102 0 -29 -16 -49
-64 -49 -120 0 -44 5 -56 29 -81 33 -32 83 -39 116 -15 17 12 21 12 32 -3 10
-13 12 17 13 162 0 111 -4 177 -10 177 -6 0 -10 -28 -10 -65z m-16 -87 c10
-14 16 -44 16 -80 0 -70 -21 -98 -73 -98 -51 0 -72 29 -72 102 0 51 4 63 24
79 33 27 86 25 105 -3z"/>
<path d="M3324 1471 c-109 -50 -112 -250 -4 -306 57 -30 144 -9 170 40 20 38
4 42 -25 7 -33 -39 -84 -51 -130 -29 -81 39 -89 208 -13 261 36 25 104 21 133
-9 14 -13 25 -29 25 -35 0 -5 5 -10 10 -10 19 0 10 36 -13 58 -21 20 -76 42
-102 42 -5 0 -28 -9 -51 -19z"/>
<path d="M2968 1443 c-2 -31 -7 -39 -26 -41 -26 -4 -20 -22 9 -22 17 0 19 -8
19 -93 0 -99 7 -117 47 -117 30 0 30 18 1 22 -22 3 -23 8 -26 96 l-3 92 25 0
c14 0 28 5 31 10 4 6 -7 10 -24 10 -29 0 -31 2 -31 40 0 51 -18 53 -22 3z"/>
<path d="M1742 1388 c-19 -19 -22 -20 -22 -5 0 9 -4 17 -10 17 -6 0 -10 -45
-10 -115 0 -63 4 -115 9 -115 5 0 11 41 13 91 3 81 6 93 27 110 27 22 50 24
75 6 15 -11 20 -32 24 -110 2 -53 9 -97 13 -97 5 0 9 41 9 90 0 99 15 130 64
130 42 0 56 -34 56 -132 0 -52 4 -88 10 -88 6 0 10 39 10 98 0 85 -3 101 -20
120 -26 27 -70 28 -101 3 -23 -19 -24 -19 -48 0 -32 25 -72 24 -99 -3z"/>
<path d="M2146 1389 c-21 -17 -26 -18 -26 -5 0 9 -4 16 -10 16 -6 0 -10 -60
-10 -160 0 -100 4 -160 10 -160 6 0 10 27 10 62 0 59 1 60 18 45 21 -19 83
-22 113 -7 28 15 49 63 49 110 0 101 -83 155 -154 99z m94 -9 c41 -22 49 -118
14 -168 -19 -28 -83 -31 -107 -4 -35 39 -33 126 4 163 21 21 59 25 89 9z"/>
<path d="M2519 1395 c-36 -19 -53 -65 -47 -125 7 -69 36 -100 95 -100 34 0 50
6 71 27 18 18 22 28 13 31 -7 2 -19 -5 -27 -17 -11 -15 -26 -21 -53 -21 -44 0
-71 24 -74 66 l-2 29 83 3 c79 3 82 4 82 27 0 76 -72 117 -141 80z m100 -31
c12 -15 21 -35 21 -45 0 -17 -8 -19 -69 -19 -39 0 -73 4 -76 10 -7 12 20 66
37 73 33 14 67 6 87 -19z"/>
<path d="M2752 1394 c-30 -21 -30 -69 1 -88 12 -8 36 -18 52 -22 84 -19 88
-94 5 -94 -24 0 -43 7 -55 20 -19 21 -35 26 -35 12 0 -5 9 -18 20 -30 44 -47
150 -19 150 41 0 35 -12 46 -76 70 -61 24 -76 45 -54 72 18 21 67 18 90 -5 24
-24 30 -25 30 -6 0 22 -40 46 -75 46 -17 0 -41 -7 -53 -16z"/>
<path d="M1590 1285 c0 -70 4 -115 10 -115 6 0 10 45 10 115 0 70 -4 115 -10
115 -6 0 -10 -45 -10 -115z"/>
<path d="M3607 1369 c-35 -27 -51 -87 -37 -138 27 -101 154 -110 191 -14 22
58 1 140 -40 163 -32 17 -86 12 -114 -11z m114 -25 c19 -20 24 -37 24 -74 0
-88 -75 -131 -130 -75 -33 32 -35 110 -4 149 28 35 77 36 110 0z"/>
<path d="M4147 1379 c-62 -36 -61 -185 2 -219 38 -20 90 -12 117 17 30 32 15
44 -15 14 -36 -36 -93 -26 -116 20 -29 55 -23 59 70 59 l85 0 0 34 c0 48 -38
86 -87 86 -21 0 -46 -5 -56 -11z m102 -35 c37 -47 29 -54 -55 -54 -73 0 -75 1
-69 23 17 58 89 76 124 31z"/>
</g>
</svg>
