<?xml version="1.0" encoding="UTF-8"?>
<svg width="94px" height="45px" viewBox="0 0 94 45" version="1.1" xmlns="http://www.w3.org/2000/svg" xmlns:xlink="http://www.w3.org/1999/xlink">
    <!-- Generator: Sketch 56.3 (81716) - https://sketch.com -->
    <title>Logo</title>
    <desc>Created with Sketch.</desc>
    <defs>
        <linearGradient x1="14.6340247%" y1="15.308671%" x2="84.8244406%" y2="84.3059683%" id="linearGradient-1">
            <stop stop-color="#3CEDFF" offset="0%"></stop>
            <stop stop-color="#1BBBEF" offset="100%"></stop>
        </linearGradient>
    </defs>
    <g id="Symbols" stroke="none" stroke-width="1" fill="none" fill-rule="evenodd">
        <g id="menu" transform="translate(-15.000000, -21.000000)" fill-rule="nonzero">
            <g id="Logo" transform="translate(62.000000, 43.000000) scale(-1, 1) rotate(-180.000000) translate(-62.000000, -43.000000) translate(15.000000, 20.000000)">
                <g id="g14" transform="translate(0.000000, 0.000000)">
                    <g id="g16" transform="translate(0.250349, 0.126045)">
                        <g id="g22" transform="translate(0.036201, 0.025613)" fill="#1BBBEF">
                            <path d="M43.5611803,23.1932767 C43.5551719,23.3001675 43.5451578,23.406554 43.5371466,23.5129406 C43.5181199,23.7907557 43.4985924,24.069075 43.4695517,24.3433607 C43.4670481,24.3670582 43.4670481,24.3907557 43.4640439,24.413949 L43.4610397,24.4109238 L41.4617317,22.3799994 L41.4597289,22.3779826 L41.4086572,22.3265541 L21.5612822,2.34151255 C19.9375016,2.36621843 18.3662949,2.60117641 16.8601796,3.00403354 L40.7497318,27.0605035 L41.8277458,28.1460497 C42.2047753,28.5252094 42.3444715,29.0959657 42.1562071,29.5981505 C41.9934786,30.0363018 41.8177317,30.4678984 41.6284659,30.8929404 C41.0892085,32.1100832 40.4513126,33.2702513 39.708269,34.3568059 C39.3132142,34.9356294 38.89012,35.4937806 38.4419906,36.0307554 L36.9564041,34.5342849 L9.46679583,6.85310907 L9.43825574,6.82336117 C8.46088305,7.63512586 7.56512499,8.54016785 6.76049491,9.52487371 L34.274137,37.229747 L35.7627277,38.7282343 C35.2284773,39.1779822 34.6736981,39.6030242 34.0983901,40.0008393 C33.0183733,40.7480662 31.8652538,41.3899149 30.6550541,41.9314275 C30.2329613,42.1210074 29.8038586,42.2989905 29.3677461,42.4623519 C28.868545,42.6509233 28.3027503,42.5107552 27.9262215,42.1305872 L26.8452033,41.0430242 L2.97467784,17.0057139 C2.57611808,18.5233609 2.34479319,20.1065541 2.32176084,21.7436969 L22.1390937,41.7010074 L24.1263848,43.7006712 C24.1223791,43.7016796 24.1183735,43.7016796 24.1143679,43.7016796 L24.1859685,43.7742846 L24.1879713,43.7763014 C24.1704467,43.7783182 24.1519206,43.7783182 24.1348967,43.780335 C23.8980641,43.8045367 23.6577266,43.8206712 23.4178897,43.837814 C23.2811977,43.8473939 23.1455072,43.8625199 23.0063117,43.8695787 C22.6508124,43.8882342 22.2918082,43.8973098 21.9313018,43.8983182 C21.9097716,43.8983182 21.8877407,43.900335 21.8667111,43.900335 L21.8637069,43.900335 C21.3319601,43.900335 20.805721,43.8736123 20.2824861,43.8357972 C20.1698279,43.82773 20.0581711,43.8196628 19.9460136,43.8100829 C19.4362977,43.765209 18.9315888,43.7047048 18.4333891,43.6250409 C18.3552794,43.6124359 18.2781711,43.5963014 18.2005621,43.582688 C17.7429194,43.5040325 17.2887816,43.410251 16.8406522,43.3033603 C16.760039,43.2831922 16.6769222,43.2665535 16.596309,43.2463855 C16.1096255,43.1233603 15.6294511,42.9831922 15.1557858,42.8273939 C15.0621543,42.7966376 14.9695242,42.7638645 14.8768941,42.7320998 C14.4022275,42.5692426 13.9330686,42.3947889 13.473423,42.2006712 C13.4659125,42.197646 13.4579012,42.1946208 13.4503907,42.1915956 C12.9797296,41.9919317 12.5205848,41.7710914 12.0674484,41.5396628 C11.9848323,41.4983183 11.902717,41.4554611 11.8216031,41.412604 C11.3739744,41.1766376 10.9353584,40.9285704 10.5067564,40.6633603 C10.47371,40.6426881 10.4431671,40.6220158 10.4111221,40.6008393 C9.99603913,40.3406713 9.59046952,40.0653771 9.19341187,39.777478 C9.14534436,39.7411755 9.09527403,39.707394 9.04670582,39.6720998 C8.63662988,39.3690746 8.23656801,39.0509234 7.84902371,38.7201671 C7.8009562,38.6793268 7.75589291,38.6384864 7.70882681,38.5981503 C6.91921783,37.9134444 6.17967917,37.1732764 5.49421646,36.382184 C5.45766512,36.339831 5.42111379,36.2969739 5.38556386,36.2541167 C4.6925906,35.4423521 4.05669751,34.5801672 3.48739794,33.6710916 C3.47287755,33.6468899 3.45735575,33.6231924 3.44133325,33.599495 C3.15593241,33.1401672 2.88805619,32.6702513 2.63670317,32.1892429 C2.6261884,32.169579 2.61567363,32.1499152 2.60565957,32.1297471 C2.10295353,31.1626883 1.66984525,30.151764 1.31384526,29.1055455 C1.30683541,29.0873942 1.29932486,29.071764 1.29331642,29.0541169 L1.29732205,29.0576463 L1.4445288,29.2058816 L1.54316733,29.3042009 L5.23785641,33.0262177 L7.15354694,34.954789 L7.19510531,34.9956294 C7.20161445,35.0052092 7.2101264,35.0132764 7.21813765,35.0218479 C7.6297157,35.4912596 8.06232329,35.9399991 8.514959,36.3670579 C8.59106589,36.4386546 8.6711784,36.5057134 8.74728529,36.5757974 C9.15385631,36.947394 9.57594913,37.3028562 10.0115609,37.6401671 C10.1157072,37.7203352 10.2213556,37.7969738 10.3265033,37.8756293 C10.7686242,38.2028562 11.2242641,38.5114276 11.6934231,38.8008394 C11.7825482,38.8547889 11.8691699,38.9117637 11.9587958,38.9657133 C12.5155777,39.2964696 13.0878815,39.6060494 13.6787113,39.8818477 C13.7698393,39.9242007 13.8589645,39.972604 13.9500925,40.0134444 C14.4077352,40.2181503 14.878897,40.3981503 15.3540643,40.5680662 C15.4677239,40.6089065 15.5783794,40.6542847 15.6925397,40.6931082 C16.0710713,40.8211755 16.4586156,40.927562 16.8456592,41.0319317 C17.0584581,41.0894107 17.2707562,41.1484023 17.4855579,41.1978141 C17.8525734,41.2835284 18.2250966,41.3531082 18.5991219,41.4166376 C18.7283033,41.4383183 18.8584862,41.457478 18.9896704,41.4771418 L2.54307167,24.9151254 L2.53806463,24.9105876 L2.53706323,24.9095792 L0.152714483,22.5070583 C0.148708857,22.3623524 0.141198309,22.2171423 0.139195496,22.0709238 C0.139195496,22.0542852 0.137192683,22.0376465 0.137192683,22.0194952 C0.137192683,21.9599995 0.142199715,21.9005037 0.142199715,21.8405037 C0.145203934,21.5127726 0.15071167,21.1870583 0.168736986,20.8628566 C0.173744018,20.7675625 0.183257379,20.6722684 0.190267224,20.5769743 C0.209293947,20.2835289 0.229822779,19.9915961 0.260866379,19.7026886 C0.268376927,19.6326046 0.278891695,19.5625205 0.28740365,19.4914281 C0.323954985,19.173781 0.364511946,18.8591592 0.414582268,18.54605 C0.420590707,18.5102516 0.427099849,18.4749575 0.433108287,18.438655 C0.743043582,16.5731088 1.28680728,14.7862181 2.03335579,13.1092434 L3.69468908,14.7816803 L3.69919541,14.7862181 L29.02877,40.2932763 C30.2725168,39.7971419 31.4556785,39.1820158 32.5597291,38.4509234 L5.52425865,11.2275627 L5.30344853,11.0052098 L4.84580579,10.5448737 C4.34910819,10.0442014 4.31005334,9.25159641 4.74015741,8.69243676 C4.91340072,8.46655441 5.09064966,8.24520988 5.27290563,8.02638635 C6.08704907,7.04974772 6.98280714,6.14773094 7.95216858,5.32689062 C8.16797167,5.14436962 8.38878179,4.96537803 8.61159472,4.79142845 C9.1673753,4.35781502 9.95448076,4.39613434 10.4526805,4.8968066 L11.1281291,5.57747885 L11.1386439,5.58756289 L38.1701088,32.8084025 C38.8981312,31.6976463 39.5084885,30.5072261 40.0031832,29.2563018 L14.6555833,3.73210075 L14.6535805,3.73008394 L13.053333,2.11865541 L12.9972542,2.06268902 C15.0065763,1.15159661 17.1731191,0.536974776 19.4473132,0.278823522 C19.4798589,0.274789909 19.5109025,0.269747892 19.5434482,0.266218481 C19.869406,0.230420162 20.1988687,0.205210079 20.5283314,0.185546214 C20.5869137,0.181512601 20.6464974,0.174957979 20.7055804,0.171428567 C21.0901204,0.150756299 21.4766633,0.139663862 21.8667111,0.139663862 C22.0159207,0.139663862 22.165631,0.147731089 22.3133384,0.150756299 L24.6946829,2.54823523 L24.7021935,2.55478985 L24.7041963,2.55731086 L41.1938555,19.1621844 C41.1753295,19.0371424 41.1573042,18.9121004 41.1367753,18.7875626 C41.0701818,18.386218 40.9975798,17.9858819 40.9074533,17.5926046 C40.8633914,17.4020164 40.8103168,17.2139491 40.7612479,17.0253777 C40.6520946,16.6058819 40.5379343,16.188403 40.4007416,15.781008 C40.3556783,15.6438652 40.3026038,15.5117643 40.2545363,15.3766383 C40.0928091,14.925882 39.9250735,14.4771425 39.7313014,14.0440333 C39.7122747,13.9976467 39.6882409,13.9537812 39.6677121,13.908403 C39.3672902,13.2448736 39.0298162,12.6020165 38.6628007,11.9778148 C37.5597515,10.1157981 36.160286,8.45142836 34.5279935,7.05277293 L34.4724155,6.99731075 C34.4523873,6.97915949 34.4318585,6.95949562 34.410829,6.94134436 L34.2951665,6.82537798 L28.8019515,1.29428568 C34.1429527,3.11142849 38.5596559,6.96453764 41.1357739,11.9309241 C41.1653154,11.9858821 41.1933548,12.0413442 41.2198921,12.095798 C41.694058,13.0265543 42.100629,13.9966383 42.4401058,14.998487 C42.4666431,15.0776467 42.4926797,15.1563021 42.5197176,15.2364702 C42.6774392,15.7240332 42.8206403,16.2171425 42.9448147,16.7183189 C42.9633407,16.7873945 42.976359,16.858487 42.9928822,16.9275626 C43.1035376,17.3934449 43.1996726,17.8643693 43.2797851,18.3403357 C43.2923027,18.4109239 43.3068231,18.4815121 43.3178386,18.5521004 C43.3984518,19.0598315 43.4590369,19.5746214 43.5046009,20.0934449 C43.5131128,20.1998314 43.5211241,20.3057138 43.529636,20.4131087 C43.5671888,20.9445373 43.5927246,21.4794953 43.5927246,22.0194952 C43.5927246,22.4142852 43.5827106,22.8045372 43.5611803,23.1932767" id="path24"></path>
                        </g>
                        <g id="g26" transform="translate(49.828783, 17.675596)" fill="#FFFFFF">
                            <path d="M10.4782163,17.5951256 C12.277243,17.5951256 13.9180475,17.0218483 15.3390432,15.9040332 C15.5293104,15.7411761 15.7656424,15.6544534 16.0240052,15.6544534 L16.1456761,15.6605038 C16.4721346,15.6917643 16.7415129,15.8556299 16.8646859,16.0598315 C17.0910038,16.2852097 17.190143,16.5922685 17.144579,16.9220164 C17.1030207,17.2179828 16.9638252,17.478655 16.7159771,17.6944533 C14.8844047,19.1142852 12.7854568,19.8342852 10.4742107,19.8342852 C7.71082962,19.8166382 5.32047244,18.8389911 3.36923198,16.9290752 C1.41298449,15.0156299 0.42109141,12.6610081 0.42109141,9.93277286 C0.42109141,7.20655444 1.41298449,4.85193265 3.36923198,2.93798312 C5.32247525,1.027563 7.71383384,0.0589915952 10.4782163,0.0589915952 C12.8029814,0.0589915952 14.9019293,0.770420149 16.7089672,2.16806717 C16.9568153,2.35310918 17.1030207,2.62436968 17.134565,2.95411757 C17.1621036,3.2642016 17.0759827,3.53949571 16.8867169,3.75579823 C16.7254904,4.01394948 16.478143,4.17428561 16.1707113,4.21663855 C15.8727929,4.2615125 15.5979068,4.20403351 15.2869701,3.9912604 C13.9746269,2.86789909 12.2817493,2.297647 10.2554034,2.297647 C8.20953003,2.297647 6.46608141,3.02773102 4.92742041,4.52773098 C3.39226433,6.02319313 2.64671723,7.78588216 2.64671723,9.92016782 C2.64671723,12.0549577 3.39326574,13.8287392 4.92942322,15.3418484 C6.44655399,16.8363021 8.3131756,17.5951256 10.4782163,17.5951256 L10.4782163,17.5951256 Z" id="path28"></path>
                        </g>
                        <g id="g30" transform="translate(67.682458, 17.518789)" fill="#FFFFFF">
                            <path d="M5.50773545,13.613445 L4.3821546,13.613445 L4.3821546,17.7705878 C4.3821546,17.9677306 4.32257092,18.2606718 4.03366516,18.5334449 C3.58753859,18.9534449 2.93512229,18.9489071 2.51252877,18.5203357 C2.24315044,18.2480668 2.18757238,17.9631928 2.18757238,17.7705878 L2.18757238,13.613445 L1.11506608,13.613445 C0.359504914,13.613445 0.142700418,13.1999997 0.081113922,12.9534451 C0.0530745416,12.8435291 0.0415583675,12.698319 0.0415583675,12.4815123 C0.0415583675,12.2193274 0.102143457,11.9949577 0.219808715,11.8159661 C0.460646965,11.4534451 0.951836826,11.4534451 1.11506608,11.4534451 L2.18757238,11.4534451 L2.18757238,2.84672262 C2.18757238,2.09042012 2.44293102,1.45512601 2.94663846,0.959495774 C3.4488438,0.465882341 4.07972986,0.215798314 4.82577766,0.215798314 C5.09866091,0.215798314 5.35001393,0.322689068 5.57232616,0.533445365 C5.86323473,0.806722669 5.92381982,1.09865543 5.92381982,1.29529409 C5.92381982,1.48840332 5.86423614,1.77831928 5.58284093,2.06168062 C5.3605287,2.28352935 5.08964826,2.40100834 4.79974109,2.40100834 C4.79673687,2.40100834 4.7086131,2.40302515 4.52385361,2.55327725 C4.42371297,2.63243691 4.3821546,2.71865539 4.3821546,2.84672262 L4.3821546,11.4534451 L5.50773545,11.4534451 C5.78362292,11.4534451 6.04248649,11.5673947 6.25328254,11.7811762 C6.52216017,12.0534451 6.57924034,12.3403358 6.57924034,12.5324367 C6.57924034,12.7260501 6.52216017,13.0134451 6.25428395,13.2836971 C6.04248649,13.4989913 5.78362292,13.613445 5.50773545,13.613445" id="path32"></path>
                        </g>
                        <g id="g34" transform="translate(75.912767, 17.492924)" fill="#FFFFFF">
                            <path d="M7.00984511,13.613445 C5.18127695,13.613445 3.61457656,12.828403 2.35030093,11.2921006 L2.35030093,12.5329409 C2.35030093,12.8263862 2.24264973,13.0895795 2.03786212,13.298319 C1.62678477,13.710756 0.928804477,13.710756 0.517727132,13.298319 C0.314441624,13.0915963 0.206289728,12.8273946 0.206289728,12.5329409 L0.206289728,1.32151257 C0.206289728,1.0270588 0.314441624,0.762857124 0.517727132,0.557142843 C0.72401686,0.350420159 0.987386754,0.241512599 1.27829533,0.241512599 C1.57020531,0.241512599 1.83207309,0.350420159 2.03886352,0.55915965 C2.24264973,0.76487393 2.35030093,1.02957981 2.35030093,1.32151257 L2.37533609,6.83747882 C2.74335296,7.90184854 3.22152453,8.83462163 3.79282691,9.60252077 C4.75117288,10.8484031 5.80465246,11.4544535 7.00984511,11.4544535 C7.30175509,11.4544535 7.56362288,11.5638653 7.76740909,11.7680669 C7.97369882,11.9737812 8.08084931,12.2379829 8.08084931,12.5329409 C8.08084931,12.8273946 7.97369882,13.0915963 7.7694119,13.298319 C7.56362288,13.5040333 7.30175509,13.613445 7.00984511,13.613445" id="path36"></path>
                        </g>
                        <g id="g38" transform="translate(85.502385, 17.511428)" fill="#FFFFFF">
                            <path d="M2.00281289,18.6554617 C1.57521234,19.0578146 0.896759471,19.0547894 0.482677906,18.6448735 C0.280393805,18.4391592 0.171240502,18.1734449 0.171240502,17.8794954 L0.171240502,1.30235291 C0.171240502,1.00941174 0.280393805,0.745210065 0.482677906,0.538487381 C0.689468337,0.332773101 0.951336122,0.223361339 1.2432461,0.223361339 C1.53115045,0.223361339 1.79301824,0.328739488 2.00281289,0.526890743 C2.22412371,0.735126032 2.34128827,1.00235292 2.34128827,1.30235291 L2.34128827,17.8794954 C2.34128827,18.1794953 2.22412371,18.4477306 2.00281289,18.6554617" id="path40"></path>
                        </g>
                        <g id="g42" transform="translate(57.539813, 3.467849)" fill="#FFFFFF">
                            <path d="M7.51054834,6.05042002 C6.70892248,6.50067211 5.81266371,6.80420151 4.80424742,6.9534452 C3.96006179,7.08453764 3.31115041,7.30285696 2.90107447,7.58520989 C2.52454565,7.88218468 2.48098447,8.14487375 2.48098447,8.31428551 C2.48098447,8.58100819 2.65923481,8.85932751 3.01122918,9.14218465 C3.39126293,9.45126027 3.94353858,9.60756279 4.65153294,9.60756279 C4.9093951,9.60756279 5.18528257,9.55462161 5.47468903,9.45226867 C5.78412362,9.3408401 6.01644992,9.24050397 6.16265526,9.15126028 C6.33489717,9.04689053 6.59125722,8.87747877 6.94775791,8.63394936 C7.15805327,8.50134433 7.38236831,8.45596618 7.65925719,8.51041996 C7.92012357,8.56386533 8.12891682,8.70806701 8.26410669,8.92689053 C8.39629234,9.13613423 8.43885211,9.38268884 8.38727968,9.63983169 C8.33620795,9.88941152 8.20552441,10.0996636 7.97520093,10.2721006 C7.58465241,10.5191594 7.27722063,10.7052098 7.053907,10.8287392 C6.80906312,10.9623527 6.47309126,11.0984871 6.02646398,11.2436972 C5.56681843,11.3934451 5.10567076,11.4685711 4.65153294,11.4685711 C3.54848374,11.4685711 2.6111673,11.2058821 1.8495977,10.6789913 C0.986886051,10.0396636 0.549271435,9.22941153 0.549271435,8.27193257 C0.549271435,7.30840318 1.01342332,6.52638639 1.85360333,6.03428556 C2.3778396,5.6510923 3.20450062,5.36016793 4.3040449,5.16605029 L4.43122352,5.12420155 C5.37805331,4.96840324 6.05850899,4.72689064 6.45156102,4.40924359 C6.80355539,4.12689065 6.97579729,3.82638646 6.98130503,3.49008395 C6.98230644,3.37512597 6.98731347,3.01966379 6.37645554,2.60268901 C5.93984233,2.24621843 5.31646682,2.06621844 4.52535572,2.06621844 C3.72473127,2.06621844 2.80594086,2.44487389 1.82105762,3.16739488 C1.64080446,3.32521 1.39596058,3.40285706 1.09904357,3.40336126 C0.832168756,3.37563017 0.606852306,3.24705874 0.461648371,3.05092429 C0.107651193,2.61831926 0.151212373,2.1171428 0.590829802,1.72941172 C1.87663568,0.68924368 3.25557235,0.155798315 4.69108849,0.140672265 L4.69509412,0.140672265 C5.76109128,0.140672265 6.7274485,0.460840325 7.57213483,1.09159661 C8.45587602,1.7531092 8.90250329,2.59764699 8.90250329,3.60352932 C8.90250329,4.61899148 8.44385914,5.43630239 7.51054834,6.05042002" id="path44"></path>
                        </g>
                        <g id="g46" transform="translate(67.659976, 3.593445)" fill="#FFFFFF">
                            <path d="M8.01125156,11.0924367 C7.81447519,10.9063863 7.71133033,10.6668905 7.71133033,10.4021846 L7.71133033,4.72184862 C7.71133033,3.94689066 7.44745973,3.30705874 6.90519814,2.76756296 C6.35792952,2.22302515 5.71702939,1.95176466 4.95596049,1.94016802 C4.19789582,1.95176466 3.56550765,2.22201675 3.02725168,2.76453775 C2.49049783,3.30504193 2.22913075,3.94588225 2.22913075,4.72184862 L2.22913075,10.4021846 C2.22913075,10.6618485 2.13299573,10.8988233 1.95023905,11.0833611 C1.58572711,11.4499157 0.969862142,11.4519325 0.595836835,11.0833611 C0.414081565,10.8998317 0.317445843,10.6628569 0.317445843,10.4021846 L0.317445843,4.72184862 C0.317445843,3.42655454 0.774087182,2.30621843 1.67234876,1.39310921 C2.57261316,0.478487383 3.68167079,0.0156302517 4.97048089,0.0156302517 C6.25879028,0.0156302517 7.37085214,0.478487383 8.27712497,1.3915966 C9.1838985,2.30521003 9.64354406,3.42504193 9.64354406,4.72184862 L9.64354406,10.4021846 C9.64354406,10.6613443 9.54790975,10.8952938 9.36615448,11.0833611 C9.00664956,11.4453779 8.40029796,11.4549577 8.01125156,11.0924367" id="path48"></path>
                        </g>
                        <g id="g50" transform="translate(78.759065, 3.454084)" fill="#FFFFFF">
                            <path d="M8.01125156,10.0840334 C7.10397732,10.9971426 5.96037116,11.4599997 4.60997457,11.4599997 C3.61057094,11.4599997 2.72482694,11.1599997 1.96125452,10.5650418 C1.94873694,10.7934451 1.86111388,11.000672 1.70539518,11.1700838 C1.35390151,11.5467224 0.72101264,11.553277 0.350992959,11.1776468 C0.170239096,10.993109 0.0731026705,10.7586552 0.0731026705,10.4984871 L0.0731026705,0.989243673 L0.114661038,0.696302504 L0.202284102,0.60756301 C0.331465533,0.390252091 0.531746822,0.239999994 0.782599137,0.170420164 L1.02844442,0.15428571 C1.49459912,0.15428571 1.82906887,0.434621838 1.95073975,0.922184851 L1.96325733,6.76134437 C1.9882925,7.54235275 2.26367927,8.18722669 2.80443875,8.73176449 C3.3406919,9.27327708 3.97308007,9.53596615 4.73815459,9.53596615 C5.49872279,9.53596615 6.13111096,9.26924347 6.66686341,8.72268886 C7.20562007,8.17462164 7.46748786,7.53680653 7.46748786,6.77546202 L7.46748786,1.11630249 C7.46748786,0.854621827 7.56262147,0.61966385 7.74537815,0.437647048 C7.92613201,0.252605036 8.16146252,0.15428571 8.4223289,0.15428571 C8.68469739,0.15428571 8.91802509,0.252100834 9.10178318,0.437647048 C9.28303774,0.621680657 9.37767065,0.855630231 9.37767065,1.11630249 L9.37767065,6.77546202 C9.37767065,8.05915946 8.91802509,9.17294095 8.01125156,10.0840334" id="path52"></path>
                        </g>
                        <g id="g54" transform="translate(45.791363, 3.723882)" fill="#0080B0">
                            <path d="M4.13080158,1.512605 L4.13080158,4.41075619 L1.19117296,4.41075619 C0.872725707,4.41075619 0.603347374,4.52168056 0.383538659,4.74352929 C0.162728538,4.96588223 0.0520731257,5.23411752 0.0520731257,5.54621835 C0.0520731257,5.85932758 0.162728538,6.13058808 0.383538659,6.35999984 C0.603347374,6.5894116 0.872725707,6.70336118 1.19117296,6.70336118 L4.13080158,6.70336118 L4.13080158,9.60151237 C4.13080158,9.93579807 4.24446121,10.2166384 4.47178047,10.4460502 C4.70010114,10.6759661 4.97648932,10.7899157 5.30144571,10.7899157 C5.62389858,10.7899157 5.90429239,10.6759661 6.1396229,10.4460502 C6.37345131,10.2166384 6.49061586,9.93579807 6.49061586,9.60151237 L6.49061586,6.70336118 L9.43124589,6.70336118 C9.74919243,6.70336118 10.0170687,6.5894116 10.2383795,6.35999984 C10.4591896,6.13058808 10.569845,5.85932758 10.569845,5.54621835 C10.569845,5.23411752 10.4591896,4.96588223 10.2383795,4.74352929 C10.0170687,4.52168056 9.74919243,4.41075619 9.43124589,4.41075619 L6.49061586,4.41075619 L6.49061586,1.512605 C6.49061586,1.1783193 6.37345131,0.897478969 6.1396229,0.66806721 C5.90429239,0.438655451 5.62389858,0.324201673 5.30144571,0.324201673 C4.97648932,0.324201673 4.70010114,0.438655451 4.47178047,0.66806721 C4.24446121,0.897478969 4.13080158,1.1783193 4.13080158,1.512605" id="path56"></path>
                        </g>
                    </g>
                </g>
                <g id="g58" transform="translate(0.000000, 0.000000)" fill="url(#linearGradient-1)">
                    <g id="g60">
                        <g id="g66">
                            <g id="g68">
                                <path d="M0.0485517229,21.9232815 C0.0485517229,9.92619918 9.89494228,0.163965808 21.994942,0.163965808 L21.994942,0.163965808 C34.0969647,0.163965808 43.9423437,9.92619918 43.9423437,21.9232815 L43.9423437,21.9232815 C43.9423437,22.720045 43.8867115,23.5022672 43.8002288,24.2744609 L43.8002288,24.2744609 L41.7352633,22.228649 C41.7428495,22.1278627 41.7504357,22.0270764 41.7504357,21.9232815 L41.7504357,21.9232815 C41.7504357,11.1241023 32.8892406,2.33814239 21.994942,2.33814239 L21.994942,2.33814239 C11.1026664,2.33814239 2.24147121,11.1241023 2.24147121,21.9232815 L2.24147121,21.9232815 C2.24147121,32.723965 11.1026664,41.5099249 21.994942,41.5099249 L21.994942,41.5099249 C22.0885052,41.5099249 22.1810569,41.5079192 22.2715857,41.5054121 L22.2715857,41.5054121 C22.2751259,41.5054121 22.2827121,41.5099249 22.2872638,41.5099249 L22.2872638,41.5099249 L24.3375626,43.5432012 C23.566804,43.6279419 22.7884592,43.6836 21.994942,43.6836 L21.994942,43.6836 C9.89494228,43.6836 0.0485517229,33.9213667 0.0485517229,21.9232815" id="path76"></path>
                            </g>
                        </g>
                    </g>
                </g>
                <g id="g86" transform="translate(91.000000, 33.000000)" fill="#FFFFFF">
                    <path d="M0.5,1.8 L0.749,1.8 C0.832,1.8 0.9005,1.8102 0.956,1.827 C1.0105,1.845 1.056,1.872 1.091,1.9068 C1.1255,1.9422 1.1495,1.9848 1.165,2.0346 C1.179,2.0856 1.187,2.1426 1.187,2.2104 C1.187,2.274 1.18,2.331 1.167,2.3796 C1.1545,2.4282 1.1315,2.469 1.1005,2.5014 C1.0705,2.5332 1.0295,2.5578 0.977,2.5728 C0.9255,2.5872 0.861,2.5962 0.7855,2.5962 L0.5,2.5962 L0.5,1.8 Z M0.5,1.4742 L0.5,0.5328 L0.1265,0.5328 L0.1265,2.9412 L0.7855,2.9412 C1.0475,2.9412 1.2405,2.8842 1.366,2.7696 C1.491,2.655 1.5535,2.4882 1.5535,2.2668 C1.5535,2.1018 1.514,1.959 1.436,1.839 C1.3595,1.7196 1.2415,1.6374 1.084,1.59 C1.11,1.5696 1.1325,1.5462 1.1535,1.5186 C1.1725,1.4904 1.193,1.4574 1.21,1.4196 L1.7045,0.5328 L1.3485,0.5328 C1.297,0.5328 1.2585,0.558 1.2355,0.606 L0.803,1.3986 C0.7895,1.4232 0.7735,1.4418 0.755,1.455 C0.736,1.4682 0.708,1.4742 0.6685,1.4742 L0.5,1.4742 Z" id="path88"></path>
                </g>
                <path d="M92,36.659935 C91.0850042,36.659935 90.3394521,35.9154074 90.3394521,34.9997176 C90.3394521,34.0840277 91.0850042,33.3395001 92,33.3395001 C92.9149958,33.3395001 93.6605479,34.0840277 93.6605479,34.9997176 C93.6605479,35.9154074 92.9149958,36.659935 92,36.659935 M90,34.9997176 C90,36.1023867 90.8969218,37 92,37 C93.1030782,37 94,36.1023867 94,34.9997176 C94,33.8970484 93.1030782,33 92,33 C90.8969218,33 90,33.8970484 90,34.9997176 Z" id="path92" fill="#FFFFFF"></path>
            </g>
        </g>
    </g>
</svg>