<svg xmlns="http://www.w3.org/2000/svg" viewBox="0 0 1080 1080"><defs><style>.cls-1{fill:#fff;}.cls-2{fill:#655dc6;}</style></defs><g id="Capa_1" data-name="Capa 1"><path class="cls-1" d="M147.26,469.6C82.6,469.6,30,416.28,30,350.75c0-65.2,52.6-118.52,117.26-118.52s117.27,53.32,117.27,118.52C264.53,416.28,211.92,469.6,147.26,469.6Zm0-178.28c-32.5,0-59.3,26.83-59.3,59.43,0,33.27,26.8,60.1,59.3,60.1,32.16,0,58.63-26.83,58.63-60.1C205.89,318.15,179.42,291.32,147.26,291.32Z"/><path class="cls-1" d="M468.77,231.89H527.4V351.08c0,65.54-52.27,118.52-116.93,118.52S293.2,416.28,293.2,350.75c0-39.74.34-79.13.34-118.86h58.3c-.34,39.73-.34,79.12-.67,118.86,0,33.27,26.8,60.1,59.3,60.1,32.17,0,58.63-26.83,58.63-60.1C469.1,311,468.77,271.62,468.77,231.89Z"/><path class="cls-1" d="M704.22,369.76V469.6c-19.78,0-39.21.34-58.64.34V291.32c-29.48,0-58.63-.34-88.12-.34V231.89H792V291H704.22Z"/><path class="cls-2" d="M892.45,771.11l79-241.41H1050L944.14,847.79H841.38L735.53,529.7H814Z"/><path class="cls-2" d="M269,689.07,30.79,609V529.38L344.62,636.67V740.83L30.79,848.11V768.54Z"/><path class="cls-2" d="M695.61,847.79H381.78V529.7H695.61v81.86c-78.9,0-157.36.45-235.82.45v54.21H695.65v45H460.38l-.59,59.92c78.46,0,156.92-.45,235.82-.45Z"/><rect class="cls-1" x="902.83" y="323.11" width="59.43" height="234.92" transform="translate(1373.11 -491.97) rotate(90)"/></g></svg>